<svg width="18" height="25" viewBox="0 0 18 25" fill="none" xmlns="http://www.w3.org/2000/svg">
<path d="M9 0.5C10.9219 0.5 12.6094 1.76562 13.2188 3.5H15C16.6406 3.5 18 4.85938 18 6.5V21.5C18 23.1875 16.6406 24.5 15 24.5H3C1.3125 24.5 0 23.1875 0 21.5V6.5C0 4.85938 1.3125 3.5 3 3.5H4.73438C5.34375 1.76562 7.03125 0.5 9 0.5ZM9 3.5C8.15625 3.5 7.5 4.20312 7.5 5C7.5 5.84375 8.15625 6.5 9 6.5C9.79688 6.5 10.5 5.84375 10.5 5C10.5 4.20312 9.79688 3.5 9 3.5ZM3.375 13.25C3.375 13.9062 3.84375 14.375 4.5 14.375C5.10938 14.375 5.625 13.9062 5.625 13.25C5.625 12.6406 5.10938 12.125 4.5 12.125C3.84375 12.125 3.375 12.6406 3.375 13.25ZM8.25 12.5C7.82812 12.5 7.5 12.875 7.5 13.25C7.5 13.6719 7.82812 14 8.25 14H14.25C14.625 14 15 13.6719 15 13.25C15 12.875 14.625 12.5 14.25 12.5H8.25ZM3.375 17.75C3.375 18.4062 3.84375 18.875 4.5 18.875C5.10938 18.875 5.625 18.4062 5.625 17.75C5.625 17.1406 5.10938 16.625 4.5 16.625C3.84375 16.625 3.375 17.1406 3.375 17.75ZM7.5 17.75C7.5 18.1719 7.82812 18.5 8.25 18.5H14.25C14.625 18.5 15 18.1719 15 17.75C15 17.375 14.625 17 14.25 17H8.25C7.82812 17 7.5 17.375 7.5 17.75Z" fill="black"/>
</svg>
