<svg width="17" height="18" viewBox="0 0 17 18" fill="none" xmlns="http://www.w3.org/2000/svg">
<path d="M16.937 5.87109C17.0776 6.1875 16.9722 6.50391 16.7261 6.75L15.2144 8.12109C15.2495 8.40234 15.2495 8.71875 15.2495 9C15.2495 9.31641 15.2495 9.63281 15.2144 9.91406L16.7261 11.2852C16.9722 11.4961 17.0776 11.8477 16.937 12.1641C16.7964 12.5859 16.6206 12.9727 16.4097 13.3594L16.2339 13.6406C15.9878 14.0273 15.7417 14.4141 15.4604 14.7305C15.2495 15.0117 14.8979 15.082 14.5815 14.9766L12.6479 14.3789C12.1558 14.7305 11.6284 15.0117 11.1011 15.2578L10.644 17.2617C10.5737 17.5781 10.3276 17.8242 10.0112 17.8945C9.51904 17.9648 9.02685 18 8.49951 18C8.00732 18 7.51513 17.9648 7.02295 17.8945C6.70654 17.8242 6.46045 17.5781 6.39013 17.2617L5.9331 15.2578C5.3706 15.0117 4.87842 14.7305 4.38623 14.3789L2.45263 14.9766C2.13623 15.082 1.78467 15.0117 1.57373 14.7656C1.29248 14.4141 1.04638 14.0273 0.800291 13.6406L0.624509 13.3594C0.413572 12.9727 0.237791 12.5859 0.0971657 12.1641C-0.0434593 11.8477 0.0620095 11.5312 0.308103 11.2852L1.81982 9.91406C1.78467 9.63281 1.78467 9.31641 1.78467 9C1.78467 8.71875 1.78467 8.40234 1.81982 8.12109L0.308103 6.75C0.0620095 6.50391 -0.0434593 6.1875 0.0971657 5.87109C0.237791 5.44922 0.413572 5.0625 0.624509 4.67578L0.800291 4.39453C1.04638 4.00781 1.29248 3.62109 1.57373 3.26953C1.78467 3.02344 2.13623 2.95312 2.45263 3.05859L4.38623 3.65625C4.87842 3.30469 5.40576 2.98828 5.9331 2.77734L6.39013 0.773438C6.46045 0.457031 6.70654 0.210938 7.02295 0.140625C7.51513 0.0703125 8.00732 0 8.53467 0C9.02685 0 9.51904 0.0703125 10.0112 0.140625C10.3276 0.175781 10.5737 0.457031 10.644 0.773438L11.1011 2.77734C11.6636 2.98828 12.1558 3.30469 12.6479 3.65625L14.5815 3.05859C14.8979 2.95312 15.2495 3.02344 15.4604 3.26953C15.7417 3.62109 15.9878 4.00781 16.2339 4.39453L16.4097 4.67578C16.6206 5.0625 16.7964 5.44922 16.9722 5.87109H16.937ZM8.53467 11.8125C9.51904 11.8125 10.4331 11.2852 10.9604 10.4062C11.4526 9.5625 11.4526 8.47266 10.9604 7.59375C10.4331 6.75 9.51904 6.1875 8.53467 6.1875C7.51513 6.1875 6.60107 6.75 6.07373 7.59375C5.58154 8.47266 5.58154 9.5625 6.07373 10.4062C6.60107 11.2852 7.51513 11.8125 8.53467 11.8125Z" fill="black"/>
</svg>
