<svg viewBox="0 0 42 42" fill="none" xmlns="http://www.w3.org/2000/svg">
	<g clip-path="url(#clip0_4_52)">
	<rect width="42" height="42" rx="21" fill="#D1D1D1"/>
	<path d="M20.75 24.5C17.5156 24.5 14.5625 22.8125 12.9453 20C11.3281 17.2578 11.3281 13.8125 12.9453 11C14.5625 8.25781 17.5156 6.5 20.75 6.5C23.9141 6.5 26.8672 8.25781 28.4844 11C30.1016 13.8125 30.1016 17.2578 28.4844 20C26.8672 22.8125 23.9141 24.5 20.75 24.5ZM17.5156 27.875H23.9141C30.875 27.875 36.5 33.5 36.5 40.4609C36.5 41.5859 35.5156 42.5 34.3906 42.5H7.03906C5.91406 42.5 5 41.5859 5 40.4609C5 33.5 10.5547 27.875 17.5156 27.875Z" fill="white"/>
	</g>
	<defs>
	<clipPath id="clip0_4_52">
	<rect width="42" height="42" rx="21" fill="white"/>
	</clipPath>
	</defs>
</svg>