<svg width="30" height="25" viewBox="0 0 30 25" fill="none" xmlns="http://www.w3.org/2000/svg">
<path d="M12.2344 1.8125L18.75 8.32812C20.0625 9.64062 20.0625 11.75 18.75 13.0625L12.2344 19.5781C10.9219 20.8906 8.8125 20.8906 7.5 19.5781L0.984375 13.0625C-0.328125 11.75 -0.328125 9.64062 0.984375 8.32812L7.5 1.8125C8.8125 0.5 10.9219 0.5 12.2344 1.8125ZM8.76562 10.6719C8.76562 11.3281 9.23438 11.7969 9.89062 11.7969C10.5 11.7969 11.0156 11.3281 11.0156 10.6719C11.0156 10.0625 10.5 9.54688 9.89062 9.54688C9.23438 9.54688 8.76562 10.0625 8.76562 10.6719ZM3.89062 9.54688C3.23438 9.54688 2.76562 10.0625 2.76562 10.6719C2.76562 11.3281 3.23438 11.7969 3.89062 11.7969C4.5 11.7969 5.01562 11.3281 5.01562 10.6719C5.01562 10.0625 4.5 9.54688 3.89062 9.54688ZM9.89062 17.7969C10.5 17.7969 11.0156 17.3281 11.0156 16.6719C11.0156 16.0625 10.5 15.5469 9.89062 15.5469C9.23438 15.5469 8.76562 16.0625 8.76562 16.6719C8.76562 17.3281 9.23438 17.7969 9.89062 17.7969ZM15.8906 9.54688C15.2344 9.54688 14.7656 10.0625 14.7656 10.6719C14.7656 11.3281 15.2344 11.7969 15.8906 11.7969C16.5 11.7969 17.0156 11.3281 17.0156 10.6719C17.0156 10.0625 16.5 9.54688 15.8906 9.54688ZM9.89062 5.79688C10.5 5.79688 11.0156 5.32812 11.0156 4.67188C11.0156 4.0625 10.5 3.54688 9.89062 3.54688C9.23438 3.54688 8.76562 4.0625 8.76562 4.67188C8.76562 5.32812 9.23438 5.79688 9.89062 5.79688ZM14.3906 21.1719V19.5781L19.8281 14.1406C21.1406 12.7812 21.5625 10.8594 21 9.17188H26.3906C28.0312 9.17188 29.3906 10.5312 29.3906 12.1719V21.1719C29.3906 22.8594 28.0312 24.1719 26.3906 24.1719H17.3906C15.7031 24.1719 14.3906 22.8594 14.3906 21.1719ZM21.8906 15.5469C21.2344 15.5469 20.7656 16.0625 20.7656 16.6719C20.7656 17.3281 21.2344 17.7969 21.8906 17.7969C22.5 17.7969 23.0156 17.3281 23.0156 16.6719C23.0156 16.0625 22.5 15.5469 21.8906 15.5469Z" fill="black"/>
</svg>
